<mxfile host="app.diagrams.net" modified="2022-10-11T18:57:53.612Z" agent="5.0 (X11; Linux x86_64) AppleWebKit/537.36 (KHTML, like Gecko) Chrome/106.0.0.0 Safari/537.36" etag="L3v7wOTH3WZucw5lis3l" version="20.4.0" type="github">
  <diagram id="KCBP0EGqcG8XrI-GR3tH" name="Página-1">
    <mxGraphModel dx="2249" dy="798" grid="1" gridSize="10" guides="1" tooltips="1" connect="1" arrows="1" fold="1" page="1" pageScale="1" pageWidth="827" pageHeight="1169" math="0" shadow="0">
      <root>
        <mxCell id="0" />
        <mxCell id="1" parent="0" />
        <mxCell id="dZPykWj6jIJnhrRMmuqp-1" style="edgeStyle=orthogonalEdgeStyle;rounded=0;orthogonalLoop=1;jettySize=auto;html=1;entryX=1;entryY=0.5;entryDx=0;entryDy=0;dashed=1;" edge="1" parent="1" source="dZPykWj6jIJnhrRMmuqp-2" target="dZPykWj6jIJnhrRMmuqp-12">
          <mxGeometry relative="1" as="geometry">
            <mxPoint y="120" as="targetPoint" />
          </mxGeometry>
        </mxCell>
        <mxCell id="dZPykWj6jIJnhrRMmuqp-2" value="Usuario" style="shape=umlActor;verticalLabelPosition=bottom;verticalAlign=top;html=1;outlineConnect=0;" vertex="1" parent="1">
          <mxGeometry x="70" y="90" width="30" height="60" as="geometry" />
        </mxCell>
        <mxCell id="dZPykWj6jIJnhrRMmuqp-3" style="edgeStyle=orthogonalEdgeStyle;rounded=0;orthogonalLoop=1;jettySize=auto;html=1;endArrow=block;endFill=0;exitX=0.5;exitY=0.5;exitDx=0;exitDy=0;exitPerimeter=0;" edge="1" parent="1" source="dZPykWj6jIJnhrRMmuqp-5">
          <mxGeometry relative="1" as="geometry">
            <mxPoint x="100" y="110" as="targetPoint" />
            <Array as="points">
              <mxPoint x="150" y="45" />
              <mxPoint x="150" y="110" />
            </Array>
          </mxGeometry>
        </mxCell>
        <mxCell id="dZPykWj6jIJnhrRMmuqp-4" style="edgeStyle=orthogonalEdgeStyle;rounded=0;orthogonalLoop=1;jettySize=auto;html=1;exitX=0.5;exitY=0.5;exitDx=0;exitDy=0;exitPerimeter=0;entryX=0;entryY=0.5;entryDx=0;entryDy=0;endArrow=block;endFill=1;" edge="1" parent="1" source="dZPykWj6jIJnhrRMmuqp-5" target="dZPykWj6jIJnhrRMmuqp-13">
          <mxGeometry relative="1" as="geometry" />
        </mxCell>
        <mxCell id="dZPykWj6jIJnhrRMmuqp-5" value="Empleados" style="shape=umlActor;verticalLabelPosition=bottom;verticalAlign=top;html=1;outlineConnect=0;" vertex="1" parent="1">
          <mxGeometry x="210" y="15" width="30" height="60" as="geometry" />
        </mxCell>
        <mxCell id="dZPykWj6jIJnhrRMmuqp-6" style="edgeStyle=orthogonalEdgeStyle;rounded=0;orthogonalLoop=1;jettySize=auto;html=1;entryX=1;entryY=0.3333333333333333;entryDx=0;entryDy=0;entryPerimeter=0;endArrow=block;endFill=0;exitX=0.5;exitY=0.5;exitDx=0;exitDy=0;exitPerimeter=0;" edge="1" parent="1" source="dZPykWj6jIJnhrRMmuqp-8" target="dZPykWj6jIJnhrRMmuqp-2">
          <mxGeometry relative="1" as="geometry">
            <mxPoint x="230" y="230" as="sourcePoint" />
            <Array as="points">
              <mxPoint x="150" y="230" />
              <mxPoint x="150" y="110" />
            </Array>
          </mxGeometry>
        </mxCell>
        <mxCell id="dZPykWj6jIJnhrRMmuqp-7" style="edgeStyle=orthogonalEdgeStyle;rounded=0;orthogonalLoop=1;jettySize=auto;html=1;entryX=0.5;entryY=0;entryDx=0;entryDy=0;endArrow=block;endFill=1;" edge="1" parent="1" source="dZPykWj6jIJnhrRMmuqp-8" target="dZPykWj6jIJnhrRMmuqp-15">
          <mxGeometry relative="1" as="geometry">
            <Array as="points">
              <mxPoint x="225" y="190" />
              <mxPoint x="440" y="190" />
            </Array>
          </mxGeometry>
        </mxCell>
        <mxCell id="dZPykWj6jIJnhrRMmuqp-8" value="Técnicos" style="shape=umlActor;verticalLabelPosition=bottom;verticalAlign=top;html=1;outlineConnect=0;" vertex="1" parent="1">
          <mxGeometry x="210" y="200" width="30" height="60" as="geometry" />
        </mxCell>
        <mxCell id="dZPykWj6jIJnhrRMmuqp-9" style="edgeStyle=orthogonalEdgeStyle;rounded=0;orthogonalLoop=1;jettySize=auto;html=1;endArrow=block;endFill=0;entryX=0.5;entryY=0.5;entryDx=0;entryDy=0;entryPerimeter=0;" edge="1" parent="1" source="dZPykWj6jIJnhrRMmuqp-11" target="dZPykWj6jIJnhrRMmuqp-8">
          <mxGeometry relative="1" as="geometry">
            <mxPoint x="250" y="240" as="targetPoint" />
            <Array as="points">
              <mxPoint x="225" y="315" />
              <mxPoint x="270" y="315" />
              <mxPoint x="270" y="230" />
            </Array>
          </mxGeometry>
        </mxCell>
        <mxCell id="dZPykWj6jIJnhrRMmuqp-10" style="edgeStyle=orthogonalEdgeStyle;rounded=0;orthogonalLoop=1;jettySize=auto;html=1;entryX=0;entryY=0.5;entryDx=0;entryDy=0;endArrow=block;endFill=1;" edge="1" parent="1" source="dZPykWj6jIJnhrRMmuqp-11" target="dZPykWj6jIJnhrRMmuqp-18">
          <mxGeometry relative="1" as="geometry" />
        </mxCell>
        <mxCell id="dZPykWj6jIJnhrRMmuqp-11" value="Supervisor" style="shape=umlActor;verticalLabelPosition=bottom;verticalAlign=top;html=1;outlineConnect=0;" vertex="1" parent="1">
          <mxGeometry x="210" y="370" width="30" height="60" as="geometry" />
        </mxCell>
        <mxCell id="dZPykWj6jIJnhrRMmuqp-12" value="Log in" style="ellipse;whiteSpace=wrap;html=1;" vertex="1" parent="1">
          <mxGeometry x="-100" y="95" width="80" height="50" as="geometry" />
        </mxCell>
        <mxCell id="dZPykWj6jIJnhrRMmuqp-13" value="Crear tiquet" style="ellipse;whiteSpace=wrap;html=1;" vertex="1" parent="1">
          <mxGeometry x="400" y="20" width="80" height="50" as="geometry" />
        </mxCell>
        <mxCell id="dZPykWj6jIJnhrRMmuqp-14" style="edgeStyle=orthogonalEdgeStyle;rounded=0;orthogonalLoop=1;jettySize=auto;html=1;entryX=0;entryY=0.5;entryDx=0;entryDy=0;endArrow=none;endFill=0;dashed=1;" edge="1" parent="1" source="dZPykWj6jIJnhrRMmuqp-15" target="dZPykWj6jIJnhrRMmuqp-16">
          <mxGeometry relative="1" as="geometry" />
        </mxCell>
        <mxCell id="dZPykWj6jIJnhrRMmuqp-15" value="Consultar tiquet" style="ellipse;whiteSpace=wrap;html=1;" vertex="1" parent="1">
          <mxGeometry x="400" y="210" width="80" height="50" as="geometry" />
        </mxCell>
        <mxCell id="dZPykWj6jIJnhrRMmuqp-16" value="Cerrar tiquet" style="ellipse;whiteSpace=wrap;html=1;" vertex="1" parent="1">
          <mxGeometry x="600" y="210" width="80" height="50" as="geometry" />
        </mxCell>
        <mxCell id="dZPykWj6jIJnhrRMmuqp-17" value="&amp;lt;&amp;lt;include&amp;gt;&amp;gt;" style="text;html=1;strokeColor=none;fillColor=none;align=center;verticalAlign=middle;whiteSpace=wrap;rounded=0;" vertex="1" parent="1">
          <mxGeometry x="510" y="210" width="60" height="30" as="geometry" />
        </mxCell>
        <mxCell id="dZPykWj6jIJnhrRMmuqp-18" value="Asignar tiquet" style="ellipse;whiteSpace=wrap;html=1;" vertex="1" parent="1">
          <mxGeometry x="400" y="375" width="80" height="50" as="geometry" />
        </mxCell>
        <mxCell id="dZPykWj6jIJnhrRMmuqp-19" value="&amp;lt;&amp;lt;include&amp;gt;&amp;gt;" style="text;html=1;strokeColor=none;fillColor=none;align=center;verticalAlign=middle;whiteSpace=wrap;rounded=0;" vertex="1" parent="1">
          <mxGeometry y="90" width="60" height="30" as="geometry" />
        </mxCell>
      </root>
    </mxGraphModel>
  </diagram>
</mxfile>
